<svg width="119" height="31" viewBox="0 0 119 31" fill="none" xmlns="http://www.w3.org/2000/svg">
<path d="M11.008 4C12.672 4 14.1653 4.32 15.488 4.96C16.8107 5.57867 17.9307 6.4 18.848 7.424C19.7867 8.42667 20.5013 9.568 20.992 10.848C21.504 12.128 21.76 13.4293 21.76 14.752C21.76 15.712 21.664 16.5973 21.472 17.408C21.28 18.2187 21.0133 18.9653 20.672 19.648C20.3307 20.3307 19.936 20.96 19.488 21.536C19.0613 22.0907 18.592 22.6027 18.08 23.072L19.136 24.256C19.968 25.024 20.8747 25.7067 21.856 26.304C22.8373 26.9227 23.8293 27.4347 24.832 27.84C25.8347 28.2667 26.8267 28.5867 27.808 28.8C28.7893 29.0133 29.6853 29.12 30.496 29.12C31.2 29.12 31.9467 29.056 32.736 28.928C33.5467 28.8 34.3573 28.608 35.168 28.352C36 28.096 36.8213 27.7547 37.632 27.328C38.4427 26.9227 39.2107 26.432 39.936 25.856L40.128 26.144C39.424 26.912 38.6347 27.584 37.76 28.16C36.8853 28.7573 35.968 29.248 35.008 29.632C34.048 30.016 33.056 30.304 32.032 30.496C31.0293 30.7093 30.0373 30.816 29.056 30.816C28.0747 30.816 27.0933 30.7307 26.112 30.56C25.1307 30.3893 24.1493 30.1013 23.168 29.696C22.1867 29.2907 21.2053 28.736 20.224 28.032C19.2427 27.3493 18.2613 26.4853 17.28 25.44L16.192 24.288C15.8293 24.5227 15.4133 24.736 14.944 24.928C14.496 25.0987 14.016 25.248 13.504 25.376C12.992 25.504 12.4693 25.6 11.936 25.664C11.4027 25.728 10.9013 25.76 10.432 25.76C8.93867 25.76 7.552 25.4613 6.272 24.864C5.01333 24.2453 3.91467 23.4453 2.976 22.464C2.05867 21.4613 1.33333 20.32 0.8 19.04C0.266667 17.76 0 16.448 0 15.104C0 13.7387 0.245333 12.3947 0.736 11.072C1.22667 9.728 1.94133 8.53333 2.88 7.488C3.84 6.44267 5.00267 5.6 6.368 4.96C7.73333 4.32 9.28 4 11.008 4ZM10.976 24.64C12.4053 24.576 13.664 24.256 14.752 23.68C15.84 23.0827 16.736 22.336 17.44 21.44C18.1653 20.5227 18.7093 19.52 19.072 18.432C19.4347 17.344 19.616 16.2773 19.616 15.232C19.616 14.0587 19.392 12.8747 18.944 11.68C18.5173 10.464 17.9093 9.376 17.12 8.416C16.352 7.43467 15.4133 6.64533 14.304 6.048C13.1947 5.42933 11.968 5.12 10.624 5.12C9.30133 5.12 8.10667 5.41867 7.04 6.016C5.99467 6.592 5.10933 7.33867 4.384 8.256C3.65867 9.17333 3.104 10.1973 2.72 11.328C2.336 12.4373 2.144 13.536 2.144 14.624C2.144 15.7973 2.35733 16.9813 2.784 18.176C3.232 19.3707 3.85067 20.448 4.64 21.408C5.42933 22.368 6.35733 23.1467 7.424 23.744C8.512 24.3413 9.696 24.64 10.976 24.64Z" fill="#EFE7D2"/>
<path d="M24.9755 4.32H29.5515V4.64H29.3915C29.2422 4.64 29.1035 4.704 28.9755 4.832C28.8475 4.93867 28.7408 5.07733 28.6555 5.248C28.5702 5.39733 28.4955 5.57867 28.4315 5.792C28.3888 5.984 28.3675 6.15467 28.3675 6.304V23.36C28.3675 23.5307 28.3888 23.7227 28.4315 23.936C28.4742 24.128 28.5382 24.3093 28.6235 24.48C28.7302 24.6507 28.8368 24.8 28.9435 24.928C29.0715 25.056 29.2208 25.12 29.3915 25.12H29.5515V25.44H24.9755V25.12H25.1355C25.3062 25.12 25.4555 25.0667 25.5835 24.96C25.7115 24.832 25.8182 24.6827 25.9035 24.512C26.0102 24.32 26.0848 24.128 26.1275 23.936C26.1702 23.7227 26.1915 23.5307 26.1915 23.36V6.304C26.1915 6.15467 26.1702 5.984 26.1275 5.792C26.0848 5.6 26.0102 5.41867 25.9035 5.248C25.8182 5.07733 25.7115 4.93867 25.5835 4.832C25.4555 4.704 25.3062 4.64 25.1355 4.64H24.9755V4.32Z" fill="#EFE7D2"/>
<path d="M40.7248 25.12H40.8848V25.44H36.3408V25.12H36.5008C36.6714 25.12 36.8208 25.056 36.9488 24.928C37.0768 24.8 37.1834 24.6507 37.2688 24.48C37.3754 24.3093 37.4501 24.128 37.4928 23.936C37.5354 23.7227 37.5568 23.5307 37.5568 23.36V5.504H33.8447C33.5034 5.504 33.2048 5.57867 32.9487 5.728C32.6927 5.87733 32.4794 6.06933 32.3088 6.304C32.1381 6.51733 32.0101 6.76267 31.9247 7.04C31.8394 7.296 31.7968 7.552 31.7968 7.808H31.4767V4.32H45.8448V7.808H45.5247C45.5247 7.552 45.4821 7.296 45.3968 7.04C45.3114 6.76267 45.1834 6.51733 45.0128 6.304C44.8421 6.06933 44.6288 5.87733 44.3728 5.728C44.1168 5.57867 43.8181 5.504 43.4768 5.504H39.7008V23.36C39.7008 23.5307 39.7221 23.7227 39.7648 23.936C39.8074 24.128 39.8714 24.3093 39.9568 24.48C40.0634 24.6507 40.1701 24.8 40.2768 24.928C40.4048 25.056 40.5541 25.12 40.7248 25.12Z" fill="#EFE7D2"/>
<path d="M57.1115 5.152C55.5328 5.152 54.1568 5.44 52.9835 6.016C51.8315 6.57067 50.8715 7.30667 50.1035 8.224C49.3355 9.12 48.7595 10.1333 48.3755 11.264C48.0128 12.3947 47.8315 13.5147 47.8315 14.624C47.8315 15.8827 48.0768 17.12 48.5675 18.336C49.0582 19.5307 49.7302 20.5973 50.5835 21.536C51.4582 22.4533 52.4715 23.2 53.6235 23.776C54.7755 24.3307 56.0235 24.608 57.3675 24.608C57.7515 24.608 58.1995 24.5653 58.7115 24.48C59.2448 24.3947 59.7675 24.2347 60.2795 24C60.7915 23.744 61.2608 23.392 61.6875 22.944C62.1355 22.496 62.4768 21.9093 62.7115 21.184H63.0315V24.736C62.7115 24.736 62.3702 24.7787 62.0075 24.864C61.6662 24.9493 61.2822 25.0453 60.8555 25.152C60.3008 25.3013 59.6822 25.44 58.9995 25.568C58.3382 25.696 57.6342 25.76 56.8875 25.76C55.0315 25.76 53.3995 25.44 51.9915 24.8C50.5835 24.16 49.4102 23.328 48.4715 22.304C47.5328 21.28 46.8288 20.128 46.3595 18.848C45.8902 17.5467 45.6555 16.2347 45.6555 14.912C45.6555 13.5893 45.8902 12.2773 46.3595 10.976C46.8288 9.67467 47.5435 8.512 48.5035 7.488C49.4635 6.44267 50.6688 5.6 52.1195 4.96C53.5702 4.32 55.2768 4 57.2395 4C57.9435 4 58.5728 4.064 59.1275 4.192C59.7035 4.32 60.2155 4.448 60.6635 4.576C60.9835 4.68267 61.2715 4.768 61.5275 4.832C61.8048 4.87467 62.0715 4.896 62.3275 4.896V8.448H62.0075C61.8795 7.78667 61.6448 7.24267 61.3035 6.816C60.9622 6.368 60.5568 6.02667 60.0875 5.792C59.6395 5.55733 59.1488 5.39733 58.6155 5.312C58.1035 5.20533 57.6022 5.152 57.1115 5.152Z" fill="#EFE7D2"/>
<path d="M78.553 25.12H78.713C78.8623 25.12 79.001 25.0667 79.129 24.96C79.257 24.832 79.3637 24.6827 79.449 24.512C79.5557 24.32 79.6303 24.128 79.673 23.936C79.7157 23.7227 79.737 23.5307 79.737 23.36V14.656H69.497V23.36C69.497 23.5307 69.5183 23.7227 69.561 23.936C69.6037 24.128 69.6677 24.3093 69.753 24.48C69.8383 24.6507 69.9343 24.8 70.041 24.928C70.169 25.056 70.3183 25.12 70.489 25.12H70.649V25.44H66.169V25.12H66.329C66.4783 25.12 66.617 25.0667 66.745 24.96C66.873 24.832 66.9797 24.6827 67.065 24.512C67.1717 24.32 67.2463 24.128 67.289 23.936C67.3317 23.7227 67.353 23.5307 67.353 23.36V6.304C67.353 6.15467 67.3317 5.984 67.289 5.792C67.2463 5.6 67.1823 5.41867 67.097 5.248C67.0117 5.07733 66.905 4.93867 66.777 4.832C66.649 4.704 66.4997 4.64 66.329 4.64H66.169V4.32H70.649V4.64H70.489C70.3183 4.64 70.169 4.704 70.041 4.832C69.913 4.93867 69.8063 5.07733 69.721 5.248C69.657 5.41867 69.6037 5.6 69.561 5.792C69.5183 5.984 69.497 6.15467 69.497 6.304V13.536H79.737V6.304C79.737 6.15467 79.7157 5.984 79.673 5.792C79.6303 5.6 79.5663 5.41867 79.481 5.248C79.3957 5.07733 79.289 4.93867 79.161 4.832C79.033 4.704 78.8837 4.64 78.713 4.64H78.553V4.32H83.033V4.64H82.873C82.7023 4.64 82.553 4.704 82.425 4.832C82.297 4.93867 82.1903 5.07733 82.105 5.248C82.041 5.41867 81.9877 5.6 81.945 5.792C81.9023 5.984 81.881 6.15467 81.881 6.304V23.36C81.881 23.5307 81.9023 23.7227 81.945 23.936C82.009 24.128 82.0837 24.3093 82.169 24.48C82.2543 24.6507 82.3503 24.8 82.457 24.928C82.585 25.056 82.7237 25.12 82.873 25.12H83.033V25.44H78.553V25.12Z" fill="#EFE7D2"/>
<path d="M85.6913 25.12H85.8512C86.0219 25.12 86.1712 25.0667 86.2992 24.96C86.4272 24.832 86.5339 24.6827 86.6192 24.512C86.7259 24.3413 86.8006 24.16 86.8433 23.968C86.9073 23.776 86.9393 23.5947 86.9393 23.424V6.304C86.9393 6.15467 86.9073 5.984 86.8433 5.792C86.8006 5.6 86.7259 5.41867 86.6192 5.248C86.5339 5.07733 86.4272 4.93867 86.2992 4.832C86.1712 4.704 86.0219 4.64 85.8512 4.64H85.6913V4.32H98.0113V7.296H97.6913C97.6486 6.80533 97.4566 6.37867 97.1152 6.016C96.7739 5.632 96.2406 5.44 95.5153 5.44H89.0833V13.536H94.3952C94.8859 13.536 95.2913 13.3867 95.6113 13.088C95.9526 12.7893 96.1233 12.4373 96.1233 12.032H96.4433V16.032H96.1233C96.1233 15.648 95.9632 15.3173 95.6432 15.04C95.3232 14.7627 94.9072 14.624 94.3952 14.624H89.0833V24.32H96.0912C96.4966 24.32 96.8486 24.224 97.1473 24.032C97.4459 23.84 97.6913 23.616 97.8833 23.36C98.0966 23.0827 98.2459 22.7947 98.3313 22.496C98.4379 22.176 98.4912 21.9093 98.4912 21.696H98.8112V25.44H85.6913V25.12Z" fill="#EFE7D2"/>
<path d="M104.583 25.12H104.743V25.44H101.19V25.12H101.351C101.5 25.12 101.639 25.056 101.767 24.928C101.916 24.8 102.033 24.6507 102.118 24.48C102.204 24.3093 102.268 24.128 102.311 23.936C102.375 23.7227 102.407 23.5307 102.407 23.36V6.304C102.407 6.15467 102.385 5.984 102.342 5.792C102.321 5.6 102.268 5.41867 102.183 5.248C102.097 5.07733 101.98 4.93867 101.83 4.832C101.681 4.704 101.5 4.64 101.286 4.64H101.127V4.32H104.359L115.975 22.624V6.304C115.975 6.15467 115.943 5.984 115.879 5.792C115.836 5.6 115.761 5.41867 115.655 5.248C115.569 5.07733 115.463 4.93867 115.335 4.832C115.207 4.704 115.057 4.64 114.887 4.64H114.727V4.32H118.311V4.64H118.15C117.98 4.64 117.83 4.704 117.702 4.832C117.575 4.93867 117.457 5.07733 117.351 5.248C117.265 5.41867 117.201 5.6 117.159 5.792C117.116 5.984 117.094 6.15467 117.094 6.304V25.44H115.111L103.527 7.072V23.36C103.527 23.5307 103.548 23.7227 103.59 23.936C103.633 24.128 103.697 24.3093 103.783 24.48C103.889 24.6507 104.007 24.8 104.134 24.928C104.262 25.056 104.412 25.12 104.583 25.12Z" fill="#EFE7D2"/>
</svg>
