<svg width="41" height="31" viewBox="0 0 41 31" fill="none" xmlns="http://www.w3.org/2000/svg">
<path d="M11.008 4C12.672 4 14.1653 4.32 15.488 4.96C16.8107 5.57867 17.9307 6.4 18.848 7.424C19.7867 8.42667 20.5013 9.568 20.992 10.848C21.504 12.128 21.76 13.4293 21.76 14.752C21.76 15.712 21.664 16.5973 21.472 17.408C21.28 18.2187 21.0133 18.9653 20.672 19.648C20.3307 20.3307 19.936 20.96 19.488 21.536C19.0613 22.0907 18.592 22.6027 18.08 23.072L19.136 24.256C19.968 25.024 20.8747 25.7067 21.856 26.304C22.8373 26.9227 23.8293 27.4347 24.832 27.84C25.8347 28.2667 26.8267 28.5867 27.808 28.8C28.7893 29.0133 29.6853 29.12 30.496 29.12C31.2 29.12 31.9467 29.056 32.736 28.928C33.5467 28.8 34.3573 28.608 35.168 28.352C36 28.096 36.8213 27.7547 37.632 27.328C38.4427 26.9227 39.2107 26.432 39.936 25.856L40.128 26.144C39.424 26.912 38.6347 27.584 37.76 28.16C36.8853 28.7573 35.968 29.248 35.008 29.632C34.048 30.016 33.056 30.304 32.032 30.496C31.0293 30.7093 30.0373 30.816 29.056 30.816C28.0747 30.816 27.0933 30.7307 26.112 30.56C25.1307 30.3893 24.1493 30.1013 23.168 29.696C22.1867 29.2907 21.2053 28.736 20.224 28.032C19.2427 27.3493 18.2613 26.4853 17.28 25.44L16.192 24.288C15.8293 24.5227 15.4133 24.736 14.944 24.928C14.496 25.0987 14.016 25.248 13.504 25.376C12.992 25.504 12.4693 25.6 11.936 25.664C11.4027 25.728 10.9013 25.76 10.432 25.76C8.93867 25.76 7.552 25.4613 6.272 24.864C5.01333 24.2453 3.91467 23.4453 2.976 22.464C2.05867 21.4613 1.33333 20.32 0.8 19.04C0.266667 17.76 0 16.448 0 15.104C0 13.7387 0.245333 12.3947 0.736 11.072C1.22667 9.728 1.94133 8.53333 2.88 7.488C3.84 6.44267 5.00267 5.6 6.368 4.96C7.73333 4.32 9.28 4 11.008 4ZM10.976 24.64C12.4053 24.576 13.664 24.256 14.752 23.68C15.84 23.0827 16.736 22.336 17.44 21.44C18.1653 20.5227 18.7093 19.52 19.072 18.432C19.4347 17.344 19.616 16.2773 19.616 15.232C19.616 14.0587 19.392 12.8747 18.944 11.68C18.5173 10.464 17.9093 9.376 17.12 8.416C16.352 7.43467 15.4133 6.64533 14.304 6.048C13.1947 5.42933 11.968 5.12 10.624 5.12C9.30133 5.12 8.10667 5.41867 7.04 6.016C5.99467 6.592 5.10933 7.33867 4.384 8.256C3.65867 9.17333 3.104 10.1973 2.72 11.328C2.336 12.4373 2.144 13.536 2.144 14.624C2.144 15.7973 2.35733 16.9813 2.784 18.176C3.232 19.3707 3.85067 20.448 4.64 21.408C5.42933 22.368 6.35733 23.1467 7.424 23.744C8.512 24.3413 9.696 24.64 10.976 24.64Z" fill="#EFE7D2"/>
</svg>
